<?xml version="1.0" encoding="UTF-8" standalone="no"?>
<!-- Created with Inkscape (http://www.inkscape.org/) -->

<svg
   xmlns:dc="http://purl.org/dc/elements/1.1/"
   xmlns:cc="http://creativecommons.org/ns#"
   xmlns:rdf="http://www.w3.org/1999/02/22-rdf-syntax-ns#"
   xmlns:svg="http://www.w3.org/2000/svg"
   xmlns="http://www.w3.org/2000/svg"
   xmlns:sodipodi="http://sodipodi.sourceforge.net/DTD/sodipodi-0.dtd"
   xmlns:inkscape="http://www.inkscape.org/namespaces/inkscape"
   width="170mm"
   height="170mm"
   viewBox="0 0 170 170"
   version="1.1"
   id="svg845"
   inkscape:version="0.92.2 (5c3e80d, 2017-08-06)"
   sodipodi:docname="moon.svg">
  <defs
     id="defs839" />
  <sodipodi:namedview
     id="base"
     pagecolor="#ffffff"
     bordercolor="#666666"
     borderopacity="1.0"
     inkscape:pageopacity="0.0"
     inkscape:pageshadow="2"
     inkscape:zoom="0.49497475"
     inkscape:cx="-302.30908"
     inkscape:cy="483.40235"
     inkscape:document-units="mm"
     inkscape:current-layer="layer1"
     showgrid="false"
     inkscape:window-width="1366"
     inkscape:window-height="705"
     inkscape:window-x="0"
     inkscape:window-y="0"
     inkscape:window-maximized="1" />
  <metadata
     id="metadata842">
    <rdf:RDF>
      <cc:Work
         rdf:about="">
        <dc:format>image/svg+xml</dc:format>
        <dc:type
           rdf:resource="http://purl.org/dc/dcmitype/StillImage" />
        <dc:title />
      </cc:Work>
    </rdf:RDF>
  </metadata>
  <g
     inkscape:label="Layer 1"
     inkscape:groupmode="layer"
     id="layer1"
     transform="translate(0,-127)">
    <path
       style="fill:#ebebeb;fill-opacity:1;stroke-width:0.29358184"
       d="m 15.216104,181.83488 c 1.444145,-3.8331 4.491818,-9.7874 6.915219,-13.5104 6.55852,-10.07581 14.525885,-17.43548 25.090123,-23.17642 13.837495,-7.52063 29.542702,-10.21076 45.646895,-7.82094 4.487787,0.66598 12.232109,2.79006 16.496569,4.52458 16.78831,6.82865 30.11973,18.43136 39.07512,34.00837 8.11903,14.12316 11.51687,30.01662 9.84106,46.03936 -0.17731,1.69707 -0.82821,5.31983 -1.44603,8.05061 -5.75485,25.43467 -24.85506,45.29722 -50.11549,52.11558 -9.345096,2.52234 -20.100304,3.08974 -30.190673,1.59239 C 72.041109,282.99206 64.296763,280.86797 60.032382,279.1334 43.263601,272.31274 29.854368,260.64453 20.957499,245.13192 12.825482,230.9533 9.4568627,215.2003 11.110077,199.08384 c 0.382127,-3.72532 2.735342,-13.6108 4.106027,-17.24896 z M 14.630382,209.952 c -0.696428,4.73916 3.435208,23.80177 4.216482,25.90479 2.271669,6.115 12.69061,22.52744 19.363159,27.98004 5.120649,4.18447 10.308164,5.35661 13.321868,6.50113 2.131366,0.80948 2.971669,1.29603 4.605755,2.66694 2.698855,2.26414 3.870755,2.73487 6.027247,2.42104 1.302262,-0.18897 2.353698,-0.0918 4.447565,0.41316 2.771649,0.66846 5.716084,0.88169 6.191187,0.44832 0.142479,-0.13008 -0.139958,-0.87305 -0.627203,-1.65174 -1.288084,-2.05848 -1.022482,-2.60129 1.425978,-2.91429 3.173272,-0.40567 6.309411,-0.0401 10.349054,1.20618 3.63131,1.12041 5.032552,1.87396 4.840868,2.60346 -0.05956,0.22678 -0.448646,0.52536 -0.864677,0.66355 -0.636344,0.2112 -1.295526,0.0554 -4.149479,-0.98033 -3.249297,-1.17921 -3.468399,-1.22134 -5.175443,-0.99417 -1.363009,0.18142 -1.876209,0.4044 -2.180409,0.94754 -0.502684,0.89774 0.06437,1.76725 1.946098,2.9839 3.106956,2.00869 5.938187,1.97782 9.179604,-0.10046 1.979974,-1.26926 3.96128,-1.80274 4.327011,-1.16505 0.375252,0.65431 -0.384767,1.27939 -2.611608,2.14766 -2.223357,0.86708 -2.785416,1.25855 -2.613845,1.82089 0.247461,0.80931 5.405884,0.51513 9.544844,-0.54455 1.338821,-0.34286 3.801561,-0.70625 5.472632,-0.80798 6.036,-0.36683 8.27236,-1.09526 12.69355,-4.13365 1.25168,-0.86055 3.62875,-2.1759 5.28184,-2.92345 2.043,-0.92387 3.72592,-1.96898 5.25405,-3.26315 1.23658,-1.04712 3.50661,-2.5677 5.04484,-3.37861 3.63559,-1.9172 6.27689,-4.31993 8.25228,-7.50699 0.83909,-1.35382 2.59643,-3.70563 3.90521,-5.22629 4.88163,-5.67198 5.8378,-7.6365 3.21454,-6.60459 -0.47871,0.18806 -1.15905,0.25466 -1.51186,0.14774 -0.79664,-0.24162 -1.04271,-1.79152 -0.68807,-4.30176 0.29924,-2.10888 3.43511,-10.95084 5.33962,-15.05556 0.88683,-1.91145 1.70651,-4.25214 2.36762,-6.76095 0.55613,-2.11048 1.14133,-4.01365 1.30041,-4.22913 0.62905,-0.85219 1.83581,0.34053 2.25833,2.23207 0.26656,1.19324 -0.2372,2.41779 -2.52506,6.13809 l -2.1961,3.57095 -1.63047,5.95863 c -1.87532,6.8534 -1.87199,6.87186 0.92637,5.19933 2.19684,-1.31316 3.84243,-3.17384 4.62532,-5.23009 0.54211,-1.42403 0.5973,-2.11816 0.42457,-5.34472 l -0.1986,-3.70823 1.015,-1.88621 c 1.45458,-2.70329 1.78573,-4.21802 1.23317,-5.64092 -1.98589,-5.11389 -3.60115,-10.44219 -3.71657,-12.26041 -0.26093,-4.1074 -0.45845,-5.34742 -0.87192,-5.47282 -0.22792,-0.069 -0.53832,0.0411 -0.68914,0.24573 -0.15073,0.20479 -0.36578,0.34372 -0.47734,0.31002 -0.2096,-0.0639 -3.16526,-9.52901 -3.27219,-10.4805 -0.0935,-0.83064 0.45987,-0.49886 2.60342,1.56086 2.71334,2.60736 3.29289,3.9423 4.15504,9.57104 1.03576,6.7619 1.78269,10.58085 1.95743,10.0088 0.0836,-0.27246 0.17453,-1.60928 0.20249,-2.9704 0.0281,-1.36117 0.10175,-3.51739 0.16333,-4.79163 0.16515,-3.4172 -0.55781,-6.34306 -2.24258,-9.07371 -1.46215,-2.37009 -9.79777,-12.253 -13.05877,-15.4831 -1.8316,-1.81421 -4.42491,-3.85543 -4.70495,-3.70322 -0.27695,0.15048 0.39532,1.22287 2.66081,4.24531 1.26071,1.68181 2.62186,3.70537 3.02481,4.49684 1.35464,2.66166 4.43406,12.2539 4.70835,14.66636 0.14593,1.28517 0.60222,3.80698 1.01371,5.60411 l 0.74808,3.26746 -1.20615,4.12731 c -2.01865,6.90753 -2.65672,10.05067 -2.85939,14.08565 -0.25871,5.15157 -0.27211,5.26775 -0.69375,6.02071 -0.28102,0.50203 -0.52268,0.59929 -0.97199,0.39126 -0.60654,-0.28087 -0.62982,-0.44203 -0.62742,-4.34136 10e-4,-2.24435 -0.58032,-1.19921 -1.86386,3.34573 -1.10845,3.92534 -1.23615,4.23399 -1.39097,3.36096 -0.0951,-0.54073 0.15622,-2.58664 0.57624,-4.67622 0.78654,-3.91329 0.9117,-5.9467 0.41021,-6.66459 -0.24519,-0.35017 -0.40232,-0.19447 -0.82644,0.81737 -0.28827,0.6877 -0.7631,2.14797 -1.05533,3.245 -0.64369,2.41688 -1.38213,3.85456 -2.36222,4.59921 -0.90862,0.6906 -1.73664,0.58828 -2.71959,-0.33611 -0.71961,-0.67653 -0.76192,-0.68394 -0.90066,-0.15577 -0.0802,0.30487 0.29895,1.51674 0.84208,2.6932 1.29779,2.8105 1.69502,4.80474 1.47488,7.40587 -0.22701,2.68175 -1.68103,6.00682 -4.41205,10.0893 -4.52166,6.75928 -9.06216,9.67063 -16.39685,10.51369 -4.03727,0.46417 -5.05241,-0.2151 -5.38632,-3.60344 -0.0793,-0.80662 -0.20181,-1.58754 -0.27128,-1.73556 -0.0711,-0.14729 -0.98098,0.64894 -2.02437,1.77103 -2.10962,2.26852 -4.02761,3.65996 -4.43446,3.21716 -0.17157,-0.18693 0.0183,-1.30168 0.53616,-3.14868 0.90494,-3.22645 0.82638,-4.25116 -0.45436,-5.92553 -1.445746,-1.89014 -3.533795,-2.67256 -5.938073,-2.22539 -2.695045,0.50138 -6.026028,2.52232 -8.080335,4.90258 -1.310759,1.51877 -1.431157,1.99214 -0.79062,3.10902 1.115183,1.94446 5.108992,2.07662 8.417574,0.27862 2.320458,-1.26145 3.527494,-2.45089 4.307667,-4.24633 0.581028,-1.33714 1.050427,-1.47065 1.628427,-0.46276 0.52919,0.92296 0.37829,1.90748 -0.51692,3.37135 -1.121382,1.83352 -3.453404,3.67423 -5.4186,4.27696 -2.623652,0.80476 -6.170876,0.72682 -9.348774,-0.20569 -2.374884,-0.69672 -1.957092,-8.44048 -2.598132,-9.23339 -1.09324,-1.35214 -4.732453,1.0581 -4.909681,2.51205 -0.238985,1.96131 2.989927,7.95486 5.654923,8.76335 2.156495,0.65419 2.159059,0.65618 1.484874,1.06902 -0.988947,0.60575 -5.064966,-3.42703 -10.483102,-3.26677 -5.936126,0.1757 -3.130115,-1.5815 -6.340793,-3.54902 -1.8112,-1.10989 -4.412769,-5.25241 -6.287213,-5.65779 -2.098723,-0.45395 -2.306463,-7.78878 -4.913323,-9.56071 -4.835991,-3.28705 1.725963,-19.94083 -2.759236,-19.25005 0.288143,1.50153 -3.646015,9.85213 -5.458132,9.21941 -1.486087,-0.51905 -1.728186,-4.76316 -4.197081,-7.03741 -6.61283,-7.96983 -1.00152,-8.30136 -2.65116,-10.84463 -4.10811,-14.33306 -1.967331,-20.2464 -5.838269,-24.21559 -4.708263,-6.66533 -11.150874,27.18684 -9.017881,30.72113 4.741088,7.85564 6.469778,24.435 10.885823,24.07758 2.138213,-0.17293 6.84437,0.0582 8.181335,1.33763 1.492615,1.42844 -3.090694,8.82968 -1.72379,4.42801 1.051917,-2.76298 1.512407,-3.80948 0.207076,-3.65947 -2.095723,0.24085 -1.246691,-0.4185 -6.493257,1.15506 -1.188623,0.61293 -4.999567,0.94464 -11.099611,-12.54255 -3.785175,-10.77255 -6.125218,-19.75987 -4.948964,-29.62917 3.710817,-18.43344 4.733642,-38.9219 -3.872587,-7.71065 z m 55.927663,32.9791 c 4.129895,-2.8411 4.341026,-3.84169 6.062409,-6.80087 0.229661,-0.90916 -2.15741,2.36315 -3.486404,3.661 -1.89025,1.84598 -2.257305,2.26711 -5.138104,2.11798 -1.671769,-0.92271 -0.375072,-0.85352 -0.853203,-0.76728 -2.075196,-0.50516 -3.094953,-1.44241 -4.314956,-4.59712 -0.579538,-0.59065 -0.861129,-0.77236 -0.651922,3.05483 0.918394,1.70318 4.009431,3.43463 5.66443,3.45881 z m -6.085749,-5.42415 c 0.231082,0.67454 2.210461,2.1117 3.326904,2.45032 1.986849,0.60277 4.800462,0.13377 5.763616,-1.80959 0.833226,-1.68128 -2.437603,-3.16828 -5.086543,-2.90682 -2.575868,0.25416 -4.513007,0.78177 -4.003977,2.26609 z m 21.419731,-4.16935 c 1.401722,0.3825 2.055683,-2.7761 2.851113,-3.78736 1.629437,-2.07147 -0.946523,-5.43934 -3.392555,-4.37966 -1.374669,0.59573 -4.400376,2.93151 -4.651111,4.24642 -0.182566,0.95698 0.343414,4.5357 1.339943,4.80768 z m 33.770083,-21.51194 c 0.51039,4.90265 5.21967,9.39067 9.41846,8.97638 3.14218,-0.31009 5.83141,-2.88211 7.10553,-6.79598 1.3792,-4.23634 1.50224,-8.15555 0.32089,-10.2154 -0.79018,-1.3772 -3.90969,-4.48335 -4.29366,-4.27469 -0.10736,0.0594 0.53249,1.11031 1.42349,2.33693 2.00118,2.75444 2.39695,4.49849 1.84196,8.11657 -0.40204,2.62121 -1.70821,6.44459 -2.63096,7.70128 -0.56637,0.77132 -2.26587,1.88973 -2.68034,1.76405 -0.13034,-0.0395 0.13166,-0.47161 0.58274,-0.96021 3.552,-3.84993 4.43116,-9.71239 2.26178,-15.08249 -1.28867,-3.18919 -4.84428,-4.34979 -7.72657,-2.52166 -1.3279,0.84243 -3.4951,3.15341 -4.22744,4.50845 -0.97927,1.81194 -1.58638,4.6161 -1.39576,6.44679 z m -10.41623,42.97472 c 0.12387,0.71778 0.51937,1.70298 0.87584,2.19001 0.55057,0.74889 0.91654,0.94756 2.38455,1.29323 3.11258,0.73268 6.61866,-0.39099 10.49643,-3.36403 3.87421,-2.97036 5.42873,-5.25527 6.58413,-9.67745 1.02902,-3.93832 0.73353,-7.77944 -0.76587,-9.95571 -1.17262,-1.70186 -2.42451,-1.6932 -5.39682,0.0376 -2.15609,1.25561 -3.39082,2.3959 -5.6449,5.21441 -0.9122,1.14068 -2.74045,3.27015 -4.06274,4.73219 -3.57475,3.95261 -4.93416,6.85039 -4.47071,9.52992 z"
       id="path4660"
       inkscape:connector-curvature="0"
       sodipodi:nodetypes="cccccccccscccccccccccccccccccccccccccccccccccccccccccccccccccccccccccccccccccccccsccsccccccccccccccccccccccccccccccccccccccccccscccccccccccccccccccccccccccccccscccccsccccccccccccc" />
  </g>
</svg>
