<?xml version="1.0" encoding="UTF-8" standalone="no"?>
<!-- Created with Inkscape (http://www.inkscape.org/) -->

<svg
   xmlns:dc="http://purl.org/dc/elements/1.1/"
   xmlns:cc="http://creativecommons.org/ns#"
   xmlns:rdf="http://www.w3.org/1999/02/22-rdf-syntax-ns#"
   xmlns:svg="http://www.w3.org/2000/svg"
   xmlns="http://www.w3.org/2000/svg"
   xmlns:xlink="http://www.w3.org/1999/xlink"
   xmlns:sodipodi="http://sodipodi.sourceforge.net/DTD/sodipodi-0.dtd"
   xmlns:inkscape="http://www.inkscape.org/namespaces/inkscape"
   width="210mm"
   height="210mm"
   viewBox="0 0 210 210"
   version="1.1"
   id="svg8"
   inkscape:version="0.92.2 (5c3e80d, 2017-08-06)"
   sodipodi:docname="MUNlogo.svg">
  <defs
     id="defs2">
    <linearGradient
       inkscape:collect="always"
       id="linearGradient821">
      <stop
         style="stop-color:#000bab;stop-opacity:1"
         offset="0"
         id="stop817" />
      <stop
         style="stop-color:#730089;stop-opacity:0.78431374"
         offset="1"
         id="stop819" />
    </linearGradient>
    <linearGradient
       inkscape:collect="always"
       xlink:href="#linearGradient821"
       id="linearGradient825"
       gradientUnits="userSpaceOnUse"
       x1="65.767853"
       y1="292.46429"
       x2="223.76192"
       y2="126.91072"
       gradientTransform="matrix(0.93434681,0,0,1.0166839,-38.247549,-4.8668316)" />
    <linearGradient
       inkscape:collect="always"
       xlink:href="#linearGradient821"
       id="linearGradient825-3"
       gradientUnits="userSpaceOnUse"
       x1="65.767853"
       y1="292.46429"
       x2="223.76192"
       y2="126.91072"
       gradientTransform="matrix(0.83652999,0,0,0.91024714,-23.153576,16.822993)" />
    <linearGradient
       inkscape:collect="always"
       xlink:href="#linearGradient821"
       id="linearGradient1978"
       x1="122.15294"
       y1="204.11726"
       x2="184.56737"
       y2="157.19894"
       gradientUnits="userSpaceOnUse"
       gradientTransform="matrix(0.95918689,0,0,0.93127497,-39.93234,11.553823)" />
  </defs>
  <sodipodi:namedview
     id="base"
     pagecolor="#ffffff"
     bordercolor="#666666"
     borderopacity="1.0"
     inkscape:pageopacity="0.0"
     inkscape:pageshadow="2"
     inkscape:zoom="0.32"
     inkscape:cx="138.0153"
     inkscape:cy="200.53695"
     inkscape:document-units="mm"
     inkscape:current-layer="layer1"
     showgrid="false"
     inkscape:window-width="1366"
     inkscape:window-height="705"
     inkscape:window-x="0"
     inkscape:window-y="0"
     inkscape:window-maximized="1" />
  <metadata
     id="metadata5">
    <rdf:RDF>
      <cc:Work
         rdf:about="">
        <dc:format>image/svg+xml</dc:format>
        <dc:type
           rdf:resource="http://purl.org/dc/dcmitype/StillImage" />
        <dc:title />
      </cc:Work>
    </rdf:RDF>
  </metadata>
  <g
     inkscape:label="Layer 1"
     inkscape:groupmode="layer"
     id="layer1"
     transform="translate(0,-87)">
    <rect
       style="opacity:1;fill:url(#linearGradient825);fill-opacity:1;stroke:none;stroke-width:1.7543633;stroke-miterlimit:4;stroke-dasharray:none;stroke-opacity:1"
       id="rect815"
       width="200.59538"
       height="200.59538"
       x="4.8380651"
       y="91.112976"
       ry="14.602727"
       rx="12.713789" />
    <rect
       style="opacity:1;fill:url(#linearGradient825-3);fill-opacity:1;stroke:#ffffff;stroke-width:4.97100019;stroke-miterlimit:4;stroke-dasharray:none;stroke-opacity:1"
       id="rect815-5"
       width="179.59496"
       height="179.59496"
       x="15.421392"
       y="102.75465"
       ry="13.073967"
       rx="11.382783" />
    <text
       xml:space="preserve"
       style="font-style:normal;font-variant:normal;font-weight:normal;font-stretch:normal;font-size:74.83499146px;line-height:1.25;font-family:'Monserga FFP';-inkscape-font-specification:'Monserga FFP';letter-spacing:0px;word-spacing:0px;fill:#ffffff;fill-opacity:1;stroke:none;stroke-width:0.38976553"
       x="138.11847"
       y="230.22229"
       id="text899-6"
       transform="scale(1.0357214,0.9655106)"><tspan
         sodipodi:role="line"
         id="tspan897-0"
         x="138.11847"
         y="230.22229"
         style="font-style:normal;font-variant:normal;font-weight:normal;font-stretch:normal;font-size:74.83499146px;font-family:'Monserga FFP';-inkscape-font-specification:'Monserga FFP';fill:#ffffff;fill-opacity:1;stroke-width:0.38976553">N</tspan></text>
    <text
       xml:space="preserve"
       style="font-style:normal;font-variant:normal;font-weight:normal;font-stretch:normal;font-size:73.23358154px;line-height:1.25;font-family:'Monserga FFP';-inkscape-font-specification:'Monserga FFP';letter-spacing:0px;word-spacing:0px;fill:#ffffff;fill-opacity:1;stroke:none;stroke-width:0.38142487"
       x="20.005594"
       y="225.29575"
       id="text899"
       transform="scale(1.0135579,0.98662345)"><tspan
         sodipodi:role="line"
         id="tspan897"
         x="20.005594"
         y="225.29575"
         style="font-style:normal;font-variant:normal;font-weight:normal;font-stretch:normal;font-size:73.23358154px;font-family:'Monserga FFP';-inkscape-font-specification:'Monserga FFP';fill:#ffffff;fill-opacity:1;stroke-width:0.38142487">M</tspan></text>
    <path
       style="fill:#000000;stroke-width:0.35277778"
       d=""
       id="path896"
       inkscape:connector-curvature="0" />
    <path
       style="fill:#ffffff;fill-opacity:1;stroke-width:0.12816489"
       d="m 78.701503,181.8827 c 0.630447,-1.67336 1.960918,-4.27275 3.018862,-5.89805 2.863145,-4.39865 6.341324,-7.61156 10.953177,-10.1178 6.040807,-3.28318 12.896998,-4.45757 19.927378,-3.41428 1.95917,0.29074 5.34,1.21802 7.20167,1.97524 7.32904,2.98108 13.14895,8.04631 17.05848,14.84655 3.54441,6.16555 5.02776,13.10393 4.29617,20.09875 -0.0774,0.74087 -0.36156,2.32241 -0.63127,3.51454 -2.51231,11.10366 -10.85062,19.77477 -21.87821,22.75137 -4.07966,1.10114 -8.77491,1.34884 -13.17992,0.69516 -1.95917,-0.29072 -5.34001,-1.21801 -7.201638,-1.97524 -7.320468,-2.9776 -13.174315,-8.07143 -17.058274,-14.84355 -3.550059,-6.18976 -5.02064,-13.06682 -4.298926,-20.10256 0.16682,-1.62631 1.194124,-5.94187 1.792501,-7.53013 z m -0.2557,12.27469 c -0.304027,2.06891 1.499651,10.3908 1.840721,11.30889 0.991704,2.66954 5.540127,9.83449 8.453052,12.21485 2.235438,1.82676 4.500063,2.33846 5.815707,2.83811 0.930454,0.35338 1.297291,0.56579 2.010658,1.16426 1.178194,0.98843 1.689791,1.19393 2.631215,1.05693 0.568507,-0.0825 1.027514,-0.0401 1.941604,0.18036 1.20998,0.29182 2.49539,0.38491 2.7028,0.19572 0.0622,-0.0568 -0.0611,-0.38114 -0.27381,-0.72108 -0.56232,-0.89864 -0.44637,-1.13561 0.62252,-1.27225 1.38531,-0.1771 2.75441,-0.0175 4.51794,0.52657 1.58527,0.48912 2.19699,0.81809 2.11331,1.13655 -0.026,0.099 -0.19586,0.22935 -0.37748,0.28968 -0.2778,0.0922 -0.56557,0.0242 -1.81148,-0.42797 -1.4185,-0.51479 -1.51415,-0.53318 -2.25937,-0.43401 -0.59503,0.0792 -0.81907,0.17654 -0.95187,0.41365 -0.21945,0.39192 0.0281,0.77151 0.84958,1.30264 1.35636,0.87691 2.59235,0.86343 4.00741,-0.0438 0.86437,-0.5541 1.72932,-0.787 1.88898,-0.50861 0.16382,0.28564 -0.16797,0.55852 -1.14011,0.93758 -0.97062,0.37852 -1.21599,0.54942 -1.14109,0.79492 0.10803,0.3533 2.35997,0.22488 4.16686,-0.23773 0.58447,-0.14968 1.65959,-0.30832 2.38911,-0.35273 2.63505,-0.16014 3.61135,-0.47814 5.54144,-1.80457 0.54643,-0.37568 1.58415,-0.9499 2.30582,-1.27625 0.89188,-0.40332 1.62657,-0.85957 2.29368,-1.42454 0.53984,-0.45713 1.53084,-1.12095 2.20236,-1.47496 1.58714,-0.83697 2.74021,-1.88589 3.60258,-3.27722 0.36631,-0.59102 1.13349,-1.61771 1.70485,-2.28157 2.1311,-2.47613 2.54852,-3.33376 1.40332,-2.88327 -0.20898,0.0821 -0.50599,0.11117 -0.66001,0.0645 -0.34778,-0.10549 -0.4552,-0.7821 -0.30038,-1.87796 0.13064,-0.92064 1.49962,-4.78066 2.33104,-6.57259 0.38715,-0.83446 0.74499,-1.8563 1.0336,-2.95153 0.24278,-0.92135 0.49825,-1.75219 0.5677,-1.84626 0.27462,-0.37203 0.80143,0.14866 0.98589,0.97442 0.11637,0.52092 -0.10355,1.0555 -1.10233,2.67962 l -0.95872,1.55892 -0.71179,2.60128 c -0.81868,2.99189 -0.81723,2.99995 0.40441,2.26979 0.95905,-0.57326 1.67744,-1.38555 2.01921,-2.28322 0.23666,-0.62167 0.26075,-0.9247 0.18535,-2.33327 l -0.0867,-1.61885 0.4431,-0.82344 c 0.63501,-1.18013 0.77957,-1.8414 0.53835,-2.46257 -0.86695,-2.2325 -1.5721,-4.5586 -1.62249,-5.35236 -0.11391,-1.79311 -0.20014,-2.33444 -0.38064,-2.38919 -0.0995,-0.0302 -0.23501,0.018 -0.30085,0.10728 -0.0658,0.0894 -0.15969,0.15005 -0.20839,0.13534 -0.0915,-0.0279 -1.38181,-4.15995 -1.42849,-4.57532 -0.0408,-0.36262 0.20076,-0.21778 1.13654,0.6814 1.18452,1.13825 1.43753,1.72103 1.81391,4.17829 0.45217,2.95195 0.77824,4.61913 0.85452,4.3694 0.0365,-0.11894 0.0762,-0.70254 0.0884,-1.29674 0.0123,-0.59423 0.0444,-1.53554 0.0713,-2.09182 0.0721,-1.4918 -0.24351,-2.7691 -0.979,-3.96118 -0.63831,-1.03468 -4.27728,-5.34912 -5.70089,-6.75924 -0.79959,-0.792 -1.93172,-1.68311 -2.05397,-1.61666 -0.12091,0.0657 0.17258,0.53385 1.16159,1.85331 0.55037,0.73421 1.14459,1.61761 1.3205,1.96313 0.59137,1.16196 1.93571,5.34951 2.05546,6.40268 0.0637,0.56105 0.2629,1.66196 0.44254,2.44651 l 0.32657,1.42643 -0.52654,1.8018 c -0.88126,3.01552 -1.15981,4.38768 -1.24829,6.14917 -0.11294,2.24895 -0.11879,2.29967 -0.30286,2.62838 -0.12268,0.21916 -0.22818,0.26162 -0.42433,0.1708 -0.26479,-0.12261 -0.27495,-0.19297 -0.2739,-1.89524 7.9e-4,-0.97979 -0.25334,-0.52352 -0.81368,1.4606 -0.4839,1.71363 -0.53965,1.84837 -0.60724,1.46725 -0.0415,-0.23606 0.0682,-1.12922 0.25156,-2.04144 0.34338,-1.70837 0.39801,-2.59606 0.17908,-2.90946 -0.10703,-0.15287 -0.17563,-0.0849 -0.36078,0.35683 -0.12585,0.30021 -0.33314,0.9377 -0.46071,1.41662 -0.28101,1.0551 -0.60338,1.68273 -1.03124,2.00781 -0.39667,0.30149 -0.75815,0.25682 -1.18726,-0.14673 -0.31415,-0.29535 -0.33262,-0.29858 -0.39319,-0.068 -0.035,0.13309 0.13051,0.66214 0.36762,1.17573 0.56656,1.22694 0.73997,2.09754 0.64386,3.23308 -0.0991,1.17073 -0.73386,2.62231 -1.9261,4.40454 -1.97396,2.9508 -3.95614,4.22177 -7.15814,4.58981 -1.7625,0.20264 -2.20566,-0.0939 -2.35143,-1.5731 -0.0346,-0.35214 -0.0881,-0.69305 -0.11843,-0.75767 -0.031,-0.0643 -0.42825,0.2833 -0.88375,0.77316 -0.92097,0.99033 -1.75828,1.59777 -1.93589,1.40446 -0.0749,-0.0816 0.008,-0.56825 0.23406,-1.37457 0.39506,-1.40853 0.36076,-1.85587 -0.19835,-2.58682 -0.63115,-0.82516 -1.5427,-1.16672 -2.5923,-0.97151 -1.17654,0.21888 -2.6307,1.10113 -3.52752,2.14025 -0.57222,0.66302 -0.62478,0.86968 -0.34515,1.35726 0.48684,0.84886 2.23036,0.90656 3.67474,0.12163 1.01301,-0.55069 1.53995,-1.06995 1.88054,-1.85376 0.25365,-0.58374 0.45857,-0.64202 0.7109,-0.20202 0.23102,0.40292 0.16514,0.83272 -0.22567,1.47178 -0.48954,0.80044 -1.5076,1.60401 -2.36552,1.86714 -1.14537,0.35132 -2.69393,0.31729 -4.08126,-0.0898 -1.03677,-0.30415 -0.85438,-3.68474 -1.13423,-4.03089 -0.47726,-0.59029 -2.06598,0.46192 -2.14335,1.09665 -0.10433,0.85622 1.30527,3.47274 2.46869,3.82569 0.94143,0.28559 0.94255,0.28646 0.64823,0.46669 -0.43173,0.26444 -2.21114,-1.49609 -4.57646,-1.42613 -2.59145,0.0767 -1.36647,-0.69041 -2.76811,-1.54934 -0.79069,-0.48453 -1.926417,-2.29297 -2.744714,-2.46995 -0.916204,-0.19817 -1.006894,-3.40023 -2.144928,-4.17378 -2.111168,-1.43498 0.753477,-8.70529 -1.204554,-8.40372 0.12579,0.6555 -1.591681,4.301 -2.382765,4.02478 -0.648757,-0.22659 -0.754447,-2.07938 -1.832251,-3.07222 -2.886852,-3.47927 -0.437217,-3.62401 -1.157371,-4.73429 -1.793411,-6.25718 -0.858847,-8.83868 -2.548718,-10.57145 -2.055408,-2.90979 -4.86795,11.86857 -3.936786,13.41149 2.069738,3.42942 2.824405,10.66724 4.752243,10.51121 0.933444,-0.0755 2.987932,0.0254 3.571589,0.58395 0.651607,0.62359 -1.349251,3.85465 -0.752524,1.93307 0.459217,-1.2062 0.660244,-1.66305 0.0904,-1.59756 -0.914894,0.10514 -0.544247,-0.1827 -2.834652,0.50425 -0.518897,0.26757 -2.182578,0.41238 -4.845573,-5.47553 -1.652431,-4.70284 -2.673985,-8.62631 -2.160488,-12.93482 1.619971,-8.04722 2.066488,-16.99158 -1.690591,-3.36613 z m 24.415427,14.39722 c 1.80293,-1.2403 1.8951,-1.67711 2.64658,-2.96896 0.10026,-0.3969 -0.94183,1.03165 -1.52201,1.59823 -0.8252,0.80587 -0.98544,0.98972 -2.24307,0.92462 -0.72982,-0.40282 -0.16374,-0.37261 -0.37247,-0.33496 -0.90594,-0.22053 -1.35112,-0.62969 -1.883717,-2.0069 -0.252997,-0.25786 -0.375927,-0.33718 -0.284597,1.3336 0.400927,0.74353 1.750334,1.49941 2.472834,1.50996 z m -2.65677,-2.36795 c 0.10088,0.29448 0.96499,0.92188 1.45238,1.06971 0.86737,0.26314 2.09567,0.0584 2.51614,-0.78999 0.36375,-0.73397 -1.06415,-1.38313 -2.22056,-1.26899 -1.12451,0.11096 -1.970177,0.34129 -1.74796,0.98927 z m 9.35091,-1.82015 c 0.61193,0.16698 0.89742,-1.21192 1.24467,-1.65339 0.71134,-0.90432 -0.41321,-2.37458 -1.48104,-1.91197 -0.60012,0.26007 -1.92101,1.27977 -2.03047,1.8538 -0.0797,0.41778 0.14992,1.98009 0.58496,2.09883 z m 14.74253,-9.39116 c 0.22281,2.14028 2.27867,4.09955 4.11168,3.91869 1.37174,-0.13537 2.54574,-1.25821 3.10197,-2.96683 0.60209,-1.8494 0.65581,-3.56035 0.14008,-4.45959 -0.34496,-0.60122 -1.7068,-1.95723 -1.87442,-1.86614 -0.0469,0.0259 0.23246,0.48471 0.62143,1.0202 0.87363,1.20247 1.0464,1.96384 0.80412,3.54334 -0.17551,1.1443 -0.74573,2.81342 -1.14856,3.36203 -0.24725,0.33673 -0.98918,0.82498 -1.17012,0.77012 -0.0569,-0.0173 0.0575,-0.20589 0.2544,-0.41919 1.55065,-1.68071 1.93445,-4.24 0.98739,-6.58435 -0.56257,-1.39226 -2.1148,-1.89893 -3.37308,-1.10085 -0.5797,0.36777 -1.52581,1.37665 -1.84551,1.9682 -0.42751,0.791 -0.69255,2.01518 -0.60933,2.81438 z m -4.54727,18.76087 c 0.0541,0.31335 0.22674,0.74344 0.38236,0.95606 0.24035,0.32693 0.40012,0.41366 1.04098,0.56456 1.35882,0.31986 2.88942,-0.17069 4.58228,-1.46858 1.69131,-1.29673 2.36995,-2.29422 2.87434,-4.22475 0.44923,-1.7193 0.32023,-3.39616 -0.33434,-4.34623 -0.51192,-0.74295 -1.05844,-0.73917 -2.35602,0.0164 -0.94125,0.54814 -1.48028,1.04594 -2.46431,2.27638 -0.39823,0.49797 -1.19636,1.4276 -1.77361,2.06586 -1.56058,1.72554 -2.15404,2.99058 -1.95171,4.16035 z"
       id="path4660"
       inkscape:connector-curvature="0"
       sodipodi:nodetypes="cccccccccscccccccccccccccccccccccccccccccccccccccccccccccccccccccccccccccccccccccsccsccccccccccccccccccccccccccccccccccccccccccscccccccccccccccccccccccccccccccscccccsccccccccccccc" />
    <path
       inkscape:connector-curvature="0"
       d="m 112.13975,168.11667 c -1.63734,-0.071 -2.74703,0.64862 -3.73154,1.66895 -0.98484,-1.02033 -2.23148,-1.66895 -3.87036,-1.66895 0,0 -8.191159,0.34065 -12.441505,0.36174 -1.650578,0.008 -0.619834,20.10131 0.41341,20.15299 l 12.355615,0.10335 c 0.50703,1.08005 1.05504,2.5292 3.50737,2.5292 2.44443,0 3.43536,-2.68137 4.65211,-2.69157 l 11.27143,-0.0945 c 0.96432,-0.008 1.66017,-19.84965 -0.36541,-19.84965 -4.03489,0 -11.79112,-0.51157 -11.79112,-0.51157 z m 0.58465,2.23461 h 10.1968 v 15.1077 h -8.32088 c -2.49355,0 -3.92497,0.60761 -4.69717,1.47195 v -14.10157 c 0,-1.36666 1.26549,-2.47808 2.82125,-2.47808 z m -19.065524,0 h 10.878974 c 1.55542,0 2.8209,1.11142 2.8209,2.47808 v 14.10157 c -0.65919,-0.86434 -2.14384,-1.47195 -4.69717,-1.47195 h -9.002704 z"
       id="path833"
       style="fill:url(#linearGradient1978);fill-opacity:1;stroke-width:0.32192197"
       sodipodi:nodetypes="scssccssssssccscsscsscscc" />
    <g
       transform="matrix(1.093929,0,0,0.65436018,73.296963,134.15521)"
       id="g4194"
       style="fill:#ffffff;fill-opacity:1;stroke:none;stroke-width:1.00182641;stroke-miterlimit:4;stroke-dasharray:none;stroke-opacity:1">
      <path
         inkscape:connector-curvature="0"
         style="fill:#ffffff;fill-opacity:1;fill-rule:nonzero;stroke:none;stroke-width:1.00182641;stroke-miterlimit:4;stroke-dasharray:none;stroke-opacity:1"
         d="m -2.0315523,26.666757 c 18.5759603,-8.090728 30.5368173,-13.2827 38.4399863,-9.448574 0,0 -4.408421,0.05467 -4.408428,-5.468185 L 61.999988,25.24999 31.999999,41.75 20.212541,36.854341 20.19059,48.022191 16.785886,40.70217 13.412226,46.493848 13.593167,33.8903 Z"
         id="path4196"
         sodipodi:nodetypes="ccccccccccc" />
      <rect
         style="fill:#ffffff;fill-opacity:1;fill-rule:nonzero;stroke:none;stroke-width:1.15801394;stroke-miterlimit:4;stroke-dasharray:none;stroke-opacity:1"
         width="32.897549"
         height="32.897549"
         x="31.861904"
         y="-3.2288425"
         transform="matrix(0.91192149,0.4103647,-0.91192149,0.4103647,0,0)"
         id="rect4198" />
    </g>
  </g>
</svg>
